<svg width="233" height="266" viewBox="0 0 233 266" fill="none" xmlns="http://www.w3.org/2000/svg">
<path d="M104.02 145.337C74.6439 129.117 45.3737 112.722 16.033 96.4316C6.66745 91.2324 0.0951457 95.0936 0.0834094 105.762C0.0482006 122.545 0.0716796 139.328 0.0716796 156.122C0.0716796 172.905 0.189027 189.7 0.00124694 206.483C-0.0574344 212.21 1.94947 215.907 7.20731 218.547C36.9001 233.476 66.4638 248.663 96.0978 263.709C104.219 267.828 110.745 263.744 110.745 254.543C110.78 221.916 110.674 189.301 110.839 156.674C110.874 151.205 108.679 147.907 104.02 145.337Z" fill="#33A852" fill-opacity="0.4"/>
<path d="M128.877 145.337C158.253 129.117 187.523 112.722 216.864 96.4316C226.229 91.2324 232.801 95.0936 232.813 105.762C232.848 122.545 232.825 139.328 232.825 156.122C232.825 172.905 232.708 189.7 232.895 206.483C232.954 212.21 230.947 215.907 225.689 218.547C195.997 233.476 166.433 248.663 136.799 263.709C128.677 267.828 122.152 263.744 122.152 254.543C122.117 221.916 122.222 189.301 122.058 156.674C122.023 151.205 124.218 147.907 128.877 145.337Z" fill="#B9D9BD" fill-opacity="0.4"/>
<path d="M174.25 15.4871H156.047V25.5216H174.25C174.25 25.5216 171.116 21.9655 170.917 20.8271C170.717 19.6886 174.25 15.4871 174.25 15.4871Z" fill="#B9D9BD" fill-opacity="0.4"/>
<path d="M153.312 58.289C151.786 56.329 149.134 54.2869 145.355 52.1861C141.576 50.0853 138.301 48.4775 135.543 47.386C132.774 46.2945 128.49 44.6632 122.68 42.4802C117.012 40.2973 112.904 38.3725 110.357 36.706C107.811 35.0394 106.543 33.1851 106.543 31.143C106.543 28.5258 107.634 26.5307 109.817 25.1458C111.906 23.8196 114.207 23.1506 116.707 23.0919C116.707 23.0685 116.707 23.0332 116.707 23.0098C127.081 23.7022 139.264 24.9111 149.333 25.5096C151.141 25.6152 151.516 25.134 151.411 23.444C150.66 11.074 141.282 2.92901 129.065 0.910376C128.079 0.746069 126.87 0.605233 125.603 0.48787C118.174 -0.451031 113.197 0.206206 111.507 0.47614C103.069 1.3681 95.8865 4.20828 89.9596 9.00841C82.6832 14.9 79.0566 22.5638 79.0566 32.0115C79.0566 41.3183 81.932 48.5479 87.6711 53.7119C93.4101 58.8758 101.438 63.1948 111.766 66.6922C119.183 69.0159 124.265 70.9876 127.035 72.5838C129.793 74.1799 131.177 76.1516 131.177 78.4754C131.177 81.0926 130.016 83.2051 127.68 84.8012C125.356 86.3974 122.152 87.1954 118.08 87.1954C116.343 87.1954 114.629 87.078 112.939 86.8668C101.649 86.0453 93.105 84.8129 81.8147 83.9327C80.2655 83.8154 79.8665 84.1674 79.8899 85.6932C80.0777 97.6055 89.1498 106.889 100.992 108.52C103.163 108.814 108.691 109.905 113.35 109.952C114.841 110.046 116.343 110.093 117.868 110.093C131.389 110.093 141.67 107.041 148.723 100.939C155.777 94.8357 159.297 86.8433 159.297 76.9497C159.297 72.8889 158.675 69.2507 157.443 66.0467C156.223 62.8309 154.838 60.2489 153.312 58.289ZM131.494 7.647C134.147 7.7761 136.083 9.88862 135.966 12.5175C135.848 15.1582 133.712 17.0947 131.072 16.9773C128.466 16.86 126.448 14.677 126.553 12.095C126.671 9.5248 128.889 7.52964 131.494 7.647Z" fill="#33A852" fill-opacity="0.4"/>
</svg>
